<svg xmlns="http://www.w3.org/2000/svg" width="200.836" height="36.299" viewBox="0 0 200.836 36.299">
  <g id="Logo" transform="translate(-6.86 -3.23)">
    <path id="Path_1" data-name="Path 1" d="M82.994,52.544l.776-1.792L75.89,30.92h4.27l5.785,15.1,6.367-15.1h4.181L86.936,53.049a11.453,11.453,0,0,1-3.106,4.521,7.024,7.024,0,0,1-4.479,1.38,10.407,10.407,0,0,1-1.147-.06,5.155,5.155,0,0,1-.9-.173V55.3c.257.051.523.09.794.116s.6.039.953.039a3.817,3.817,0,0,0,2.308-.72,5.041,5.041,0,0,0,1.631-2.192Z" transform="translate(-48.415 -19.421)" fill="#fff"/>
    <path id="Path_2" data-name="Path 2" d="M151.606,31.762V20.154H146.26l1.153-3.261h4.181V10.92h3.846v5.973h5.823v3.261H155.44V30.869A2.794,2.794,0,0,0,156.118,33a3.258,3.258,0,0,0,2.234.621,9.628,9.628,0,0,0,1.454-.1,6.9,6.9,0,0,0,1.38-.367V36.42a10.061,10.061,0,0,1-1.807.427A12.986,12.986,0,0,1,157.5,37a6.41,6.41,0,0,1-4.387-1.341A4.924,4.924,0,0,1,151.606,31.762Z" transform="translate(-97.771 -5.394)" fill="#fff"/>
    <path id="Path_3" data-name="Path 3" d="M219.739,47.678a11.883,11.883,0,0,1-7.648,2.6,10.578,10.578,0,0,1-7.376-2.95,9.762,9.762,0,0,1-2.195-3.243,10.718,10.718,0,0,1-.018-8.063,10.153,10.153,0,0,1,2.09-3.222,9.777,9.777,0,0,1,3.145-2.156,9.625,9.625,0,0,1,3.882-.794,9.2,9.2,0,0,1,6.812,2.968,10.342,10.342,0,0,1,2,3.285,11.226,11.226,0,0,1,.738,4.076v1.126h-15.6a6.683,6.683,0,0,0,6.677,5.674A8.233,8.233,0,0,0,215,46.513a6.845,6.845,0,0,0,2.252-1.281ZM211.548,33.12a5.617,5.617,0,0,0-3.864,1.475,6.513,6.513,0,0,0-2.09,3.8h11.742a6.761,6.761,0,0,0-2.04-3.766A5.3,5.3,0,0,0,211.548,33.12Z" transform="translate(-136.671 -18.67)" fill="#fff"/>
    <path id="Path_4" data-name="Path 4" d="M273.62,47.389l2.09-2.562a12.952,12.952,0,0,0,3.163,1.843,8.756,8.756,0,0,0,3.285.642,6.455,6.455,0,0,0,3.419-.815,2.441,2.441,0,0,0,1.32-2.135,2.031,2.031,0,0,0-.776-1.669,5,5,0,0,0-2.407-.854l-3.584-.5a8.072,8.072,0,0,1-4.408-1.807,4.746,4.746,0,0,1-1.493-3.667,5.214,5.214,0,0,1,2.135-4.33,8.888,8.888,0,0,1,5.59-1.648,13.576,13.576,0,0,1,4.145.633,9.434,9.434,0,0,1,3.118,1.445l-1.272,3.019a12.689,12.689,0,0,0-3.163-1.586,10.2,10.2,0,0,0-3.088-.49,5.013,5.013,0,0,0-2.873.738,2.249,2.249,0,0,0-1.087,1.95,1.92,1.92,0,0,0,.756,1.648,5.834,5.834,0,0,0,2.506.836l3.584.5a8.223,8.223,0,0,1,4.444,1.825,4.757,4.757,0,0,1,1.535,3.688,4.957,4.957,0,0,1-.642,2.464,6.143,6.143,0,0,1-1.747,1.962,8.986,8.986,0,0,1-2.619,1.3,10.566,10.566,0,0,1-3.261.487,15.167,15.167,0,0,1-4.8-.738,10.978,10.978,0,0,1-3.873-2.177Z" transform="translate(-187.097 -18.691)" fill="#fff"/>
    <path id="Path_5" data-name="Path 5" d="M389.57,49.662V29.9h3.882v2.523a6.1,6.1,0,0,1,2.291-2.2,6.5,6.5,0,0,1,3.145-.756,6.794,6.794,0,0,1,1.087.078,4.837,4.837,0,0,1,.9.233v3.494a8.117,8.117,0,0,0-1.126-.3,5.925,5.925,0,0,0-1.165-.116,5.3,5.3,0,0,0-3.046.911,5.868,5.868,0,0,0-2.09,2.688v13.2Z" transform="translate(-268.42 -18.402)" fill="#fff"/>
    <path id="Path_6" data-name="Path 6" d="M430.779,39.86a10.207,10.207,0,0,1,.8-4.02,9.971,9.971,0,0,1,2.192-3.261,10.4,10.4,0,0,1,3.285-2.174,10.244,10.244,0,1,1-3.285,16.774,9.953,9.953,0,0,1-2.192-3.264,10.288,10.288,0,0,1-.8-4.055Zm10.288,6.869a6.035,6.035,0,0,0,4.563-2,7.222,7.222,0,0,0,0-9.723,6.271,6.271,0,0,0-9.144,0,6.749,6.749,0,0,0-1.9,4.853,6.833,6.833,0,0,0,1.884,4.871,6.071,6.071,0,0,0,4.6,2.019Z" transform="translate(-297.323 -18.5)" fill="#fff"/>
    <path id="Path_7" data-name="Path 7" d="M511.9,49.774V30.014h3.882v1.98a7.934,7.934,0,0,1,2.661-1.768,8.717,8.717,0,0,1,3.285-.6,7.411,7.411,0,0,1,7.726,7.726V49.777h-3.882V38.011a4.966,4.966,0,0,0-1.338-3.67A4.788,4.788,0,0,0,520.68,33a5.973,5.973,0,0,0-2.813.66,5.512,5.512,0,0,0-2.09,1.9V49.774Z" transform="translate(-354.219 -18.514)" fill="#fff"/>
    <path id="Path_8" data-name="Path 8" d="M335.036,31.83V20.222H329.69l1.153-3.249h4.181V11h3.846v5.973h5.844v3.249h-5.823V30.937a2.79,2.79,0,0,0,.678,2.135,3.274,3.274,0,0,0,2.234.621,10.094,10.094,0,0,0,1.454-.1,7.045,7.045,0,0,0,1.377-.37v3.261a9.965,9.965,0,0,1-1.792.427,12.584,12.584,0,0,1-1.884.155,6.434,6.434,0,0,1-4.387-1.338A4.978,4.978,0,0,1,335.036,31.83Z" transform="translate(-226.422 -5.45)" fill="#fff"/>
    <path id="Path_9" data-name="Path 9" d="M26.856,17.361a10.34,10.34,0,0,0-13.471-5.435,10.527,10.527,0,0,0-2.643,1.6V3.23H6.86V31.26H10.7V29.238a10.443,10.443,0,0,0,10.724,1.634,9.992,9.992,0,0,0,5.435-5.435,10.619,10.619,0,0,0,0-8.063Zm-4.892,8.89a6.251,6.251,0,0,1-9.162-.006,6.845,6.845,0,0,1-1.881-4.868,6.737,6.737,0,0,1,1.9-4.853,6.122,6.122,0,0,1,4.581-1.98,6.059,6.059,0,0,1,4.56,1.98,6.77,6.77,0,0,1,1.884,4.853,6.836,6.836,0,0,1-1.884,4.874Z" fill="#fff"/>
    <path id="Path_10" data-name="Path 10" d="M582.08,21.208V33.32a3.536,3.536,0,0,0,1.768,3.067l10.488,6.056a3.539,3.539,0,0,0,3.542,0l10.488-6.056a3.542,3.542,0,0,0,1.771-3.067V21.208a3.542,3.542,0,0,0-1.771-3.067l-10.482-6.056a3.539,3.539,0,0,0-3.542,0l-10.494,6.056a3.536,3.536,0,0,0-1.768,3.067Z" transform="translate(-403.441 -5.877)" fill="#2db780" stroke="#fff" stroke-miterlimit="10" stroke-width="2"/>
    <path id="Path_11" data-name="Path 11" d="M614.83,47.991a11.691,11.691,0,0,1-7.493,2.55,10.384,10.384,0,0,1-7.218-2.894,9.589,9.589,0,0,1-2.147-3.177,10.473,10.473,0,0,1-.021-7.893,10.034,10.034,0,0,1,2.055-3.157,9.536,9.536,0,0,1,3.082-2.108,9.4,9.4,0,0,1,3.8-.782,9.034,9.034,0,0,1,6.668,2.912,10.084,10.084,0,0,1,1.956,3.2,10.968,10.968,0,0,1,.732,4v1.1h-15.29A6.549,6.549,0,0,0,607.5,47.3a8.063,8.063,0,0,0,2.688-.457,6.707,6.707,0,0,0,2.207-1.254Zm-8.024-14.266a5.513,5.513,0,0,0-3.787,1.445,6.382,6.382,0,0,0-2.034,3.727h11.485a6.618,6.618,0,0,0-1.995-3.688,5.205,5.205,0,0,0-3.67-1.484Z" transform="translate(-414.038 -19.147)" fill="#fff"/>
  </g>
</svg>
