<svg xmlns="http://www.w3.org/2000/svg" width="30.714" height="36.299" viewBox="0 0 30.714 36.299">
  <path id="Icon_ionic-md-notifications-outline" data-name="Icon ionic-md-notifications-outline" d="M21.069,9.7a12.614,12.614,0,0,1,2.086.391A8.892,8.892,0,0,1,29.934,18.8V29.937l.813.817.68.683H10.538l.68-.683.813-.817V18.8a8.892,8.892,0,0,1,6.778-8.713A15.447,15.447,0,0,1,20.895,9.7m.087-6.324A2.668,2.668,0,0,0,18.272,6.1v1.27A11.764,11.764,0,0,0,9.238,18.8v9.982l-3.613,3.63v1.815H36.339V32.414l-3.613-3.63V18.8A11.764,11.764,0,0,0,23.692,7.368V6.1a2.668,2.668,0,0,0-2.71-2.722ZM24.6,36.044H17.369a3.613,3.613,0,1,0,7.227,0Z" transform="translate(-5.625 -3.375)" fill="#25282a"/>
</svg>
